<svg width="16" height="16" viewBox="0 0 16 16" fill="none" xmlns="http://www.w3.org/2000/svg">
<g clip-path="url(#clip0_882_9490)">
<path fill-rule="evenodd" clip-rule="evenodd" d="M9.56096 0.839265C9.43061 0.678373 9.26304 0.525338 9.04828 0.406311C8.51289 0.109547 7.68423 0.024169 7.17781 0.000537374C6.93387 -0.0108463 6.63723 0.160178 6.5157 0.366747L6.36917 0.615772C6.88857 0.45503 7.45273 0.404987 8.06105 0.498941C8.5798 0.57906 9.0811 0.693828 9.56096 0.839265ZM2.21039 8.86185C1.75601 7.08238 3.84576 0.206452 8.25255 0.88706C9.54816 1.08717 10.7348 1.50338 11.7511 2.07374C11.8964 1.97549 12.0776 1.91297 12.2335 1.92112C12.8628 1.95404 14.0228 2.06351 14.7631 2.42765C15.3927 2.73736 15.7188 3.23125 15.8796 3.58025C15.9797 3.79748 15.9486 4.16708 15.8582 4.38832L15.1716 6.06849C15.3377 6.67973 15.3815 7.31203 15.2848 7.9472L15.0876 14.3505C15.0802 14.5885 14.9575 14.939 14.7797 15.1022C14.4501 15.4047 13.846 15.8168 12.9777 15.8493C11.9733 15.8868 10.6155 15.4165 9.94617 15.1556C9.71936 15.0673 9.50571 14.798 9.46517 14.5632L9.0379 12.0876C8.2709 12.2034 7.61529 12.2237 7.20875 12.1565C5.53891 11.8805 2.66477 10.6413 2.21039 8.86185ZM3.34687 4.86887C3.65138 4.09546 4.1898 3.18868 4.83947 2.70805C5.83698 1.97009 7.08622 1.90426 8.07122 2.27296C8.69884 2.50788 9.87168 3.06811 10.6707 3.88313C11.9424 5.18032 12.7172 6.99455 12.2431 8.19888C11.7877 9.35581 10.1465 10.3502 8.50194 10.7203C7.26766 10.9982 5.61035 10.4681 4.94343 10.2185C3.31697 9.60967 3.16896 9.1234 2.94751 8.47186C2.72613 7.82029 2.57493 6.82989 3.34687 4.86887ZM3.87499 5.08252C4.15897 4.36105 4.65628 3.51346 5.24974 3.06044C6.05785 2.44362 7.03957 2.31572 7.87079 2.52651C7.14809 2.47118 6.36956 2.65831 5.70478 3.16652C5.09273 3.63435 4.57963 4.50941 4.28647 5.25416C3.54315 7.14237 3.67285 8.09004 3.872 8.71214C3.97888 9.04599 4.06656 9.33443 4.35851 9.61753C3.72491 9.2385 3.61742 8.87717 3.47478 8.43288C3.28124 7.82999 3.15492 6.91166 3.87499 5.08252ZM1.68342 9.15482C1.59886 8.82366 1.60241 8.31595 1.69261 7.71333L0.151474 10.8343C0.0455182 11.0489 -0.0391261 11.4179 0.0188611 11.6493C0.0942343 11.95 0.265457 12.3398 0.654347 12.5767C1.1061 12.8517 1.85156 12.9203 2.32569 12.9343C2.5698 12.9414 2.87897 12.7732 3.0161 12.5761L3.82101 11.4194C2.79622 10.847 1.91782 10.0728 1.68342 9.15482Z" fill="url(#paint0_linear_882_9490)"/>
<path fill-rule="evenodd" clip-rule="evenodd" d="M9.56096 0.839265C9.43061 0.678373 9.26304 0.525338 9.04828 0.406311C8.51289 0.109547 7.68423 0.024169 7.17781 0.000537374C6.93387 -0.0108463 6.63723 0.160178 6.5157 0.366747L6.36917 0.615772C6.88857 0.45503 7.45273 0.404987 8.06105 0.498941C8.5798 0.57906 9.0811 0.693828 9.56096 0.839265ZM2.21039 8.86185C1.75601 7.08238 3.84576 0.206452 8.25255 0.88706C9.54816 1.08717 10.7348 1.50338 11.7511 2.07374C11.8964 1.97549 12.0776 1.91297 12.2335 1.92112C12.8628 1.95404 14.0228 2.06351 14.7631 2.42765C15.3927 2.73736 15.7188 3.23125 15.8796 3.58025C15.9797 3.79748 15.9486 4.16708 15.8582 4.38832L15.1716 6.06849C15.3377 6.67973 15.3815 7.31203 15.2848 7.9472L15.0876 14.3505C15.0802 14.5885 14.9575 14.939 14.7797 15.1022C14.4501 15.4047 13.846 15.8168 12.9777 15.8493C11.9733 15.8868 10.6155 15.4165 9.94617 15.1556C9.71936 15.0673 9.50571 14.798 9.46517 14.5632L9.0379 12.0876C8.2709 12.2034 7.61529 12.2237 7.20875 12.1565C5.53891 11.8805 2.66477 10.6413 2.21039 8.86185ZM3.34687 4.86887C3.65138 4.09546 4.1898 3.18868 4.83947 2.70805C5.83698 1.97009 7.08622 1.90426 8.07122 2.27296C8.69884 2.50788 9.87168 3.06811 10.6707 3.88313C11.9424 5.18032 12.7172 6.99455 12.2431 8.19888C11.7877 9.35581 10.1465 10.3502 8.50194 10.7203C7.26766 10.9982 5.61035 10.4681 4.94343 10.2185C3.31697 9.60967 3.16896 9.1234 2.94751 8.47186C2.72613 7.82029 2.57493 6.82989 3.34687 4.86887ZM3.87499 5.08252C4.15897 4.36105 4.65628 3.51346 5.24974 3.06044C6.05785 2.44362 7.03957 2.31572 7.87079 2.52651C7.14809 2.47118 6.36956 2.65831 5.70478 3.16652C5.09273 3.63435 4.57963 4.50941 4.28647 5.25416C3.54315 7.14237 3.67285 8.09004 3.872 8.71214C3.97888 9.04599 4.06656 9.33443 4.35851 9.61753C3.72491 9.2385 3.61742 8.87717 3.47478 8.43288C3.28124 7.82999 3.15492 6.91166 3.87499 5.08252ZM1.68342 9.15482C1.59886 8.82366 1.60241 8.31595 1.69261 7.71333L0.151474 10.8343C0.0455182 11.0489 -0.0391261 11.4179 0.0188611 11.6493C0.0942343 11.95 0.265457 12.3398 0.654347 12.5767C1.1061 12.8517 1.85156 12.9203 2.32569 12.9343C2.5698 12.9414 2.87897 12.7732 3.0161 12.5761L3.82101 11.4194C2.79622 10.847 1.91782 10.0728 1.68342 9.15482Z" fill="white"/>
</g>
<defs>
<linearGradient id="paint0_linear_882_9490" x1="-4.96628e-09" y1="-4.57855e-09" x2="15.8511" y2="15.9414" gradientUnits="userSpaceOnUse">
<stop stop-color="#FF00EE"/>
<stop offset="0.438272" stop-color="#DD00FF"/>
<stop offset="0.839506" stop-color="#6500FC"/>
</linearGradient>
<clipPath id="clip0_882_9490">
<rect width="16" height="16" fill="white"/>
</clipPath>
</defs>
</svg>
